<?xml version="1.0"?><svg version="1.2" baseProfile="tiny-ps" viewBox="0 0 300 300" xmlns="http://www.w3.org/2000/svg" xmlns:xlink="http://www.w3.org/1999/xlink"><title>Locklet</title><g><g fill="#b8baa9" transform="matrix(.1 0 0 -.1 0 300)"><path d="M1351 2705c-83-19-192-71-258-124l-53-41-35-53-35-52-20-64-20-63v-136l20-64 20-64 38-60c21-32 65-90 97-127l58-69 50 50 49 50-59 73c-77 95-97 130-118 203l-17 59 6 54 6 54 24 48 24 47 41 37c76 69 168 104 301 113l85 6 107-11 107-12 138-34c116-29 282-80 356-110l19-8-3-296-3-296 50-82c27-45 52-82 55-83 8 0 28 115 39 228l9 97 1 261v262l-13 11c-39 32-406 144-595 182l-107 21-150 4-150 4-64-15zm-356-60c-71-18-193-55-270-82l-140-48-8-220-8-220 10-145 11-145 20-80 20-80 49-100c27-55 68-128 92-161 53-74 123-154 135-154 5 0 28 28 51 63 22 34 58 85 78 114l37 52-43 50c-23 28-46 51-50 51s-24-23-45-51l-38-52-21 28c-59 73-127 249-145 370l-10 70v504l53 19c28 11 84 30 122 42l70 23 9 15c21 36 83 95 138 132l60 40-23-1c-13 0-82-15-154-34zm393-115c-98-17-210-87-244-152-9-17-14-32-11-34 2-2 42 5 88 16s132 25 190 32l107 12 118-17 119-17 82-25 82-26 7-35 7-36-7-45c-15-112-90-219-277-395l-120-113 49-48 49-48 112 103c62 57 142 137 177 178l65 75 41 84 42 83 4 100 4 99-17 44-17 45-71 34c-159 76-412 114-579 86zm-195-390c-24-4-46-9-50-13l-6-7 46-68 46-68 130-127c71-70 134-127 140-127 27 0 341 325 341 352 0 3-26-4-57-15l-58-21h-170l-65 28c-152 64-215 78-297 66zm-340-237c-27-32-56-68-65-81l-16-23 13-47c16-64 38-122 45-122 3 0 17 21 33 46l27 46 47-64c60-83 212-248 227-248 6 0 32 20 56 45l43 44-72 76c-81 85-163 193-234 308-27 42-50 77-52 77s-25-26-52-57zm1160-68c-46-69-83-130-83-134s21-27 46-51l45-45 35 40c18 22 36 48 40 58 3 9 8 17 12 17 12 0 90-121 117-182 14-31 33-89 41-130l15-73-6-60c-4-33-19-96-33-140l-26-80-53-79-53-79v-26c0-38-28-147-46-182-8-17-13-33-10-36 8-9 134 117 187 187 62 82 121 195 149 285l22 70 5 95 6 95-22 85-21 85-40 80c-43 86-107 176-192 269l-53 58-82-127zm-808-55-79-79 19-23c11-13 30-35 44-50l24-27 88 82 89 81-47 48c-26 27-50 48-53 48s-41-36-85-80zm160-84-50-45 15-15c8-8 69-64 135-124l119-110 48 41c26 22 48 45 48 51 0 10-242 238-258 243-4 2-29-17-57-41zm418-2-52-45 76-77c81-82 160-181 239-301l49-73 39 43c21 24 52 62 67 83l29 39v27c0 25-31 127-46 151l-6 10-35-55c-19-31-36-56-37-56-2 0-28 33-59 73-31 39-91 107-134 149l-78 78-52-46zM616 1542c-12-21-36-162-36-218 0-132 54-295 140-427l50-76 68-69c79-81 166-142 260-182l68-29 101-20 101-21h183l32 16c47 25 171 111 195 137l22 23-88-18-87-19-155 4-155 5-75 22c-41 12-106 38-143 57l-69 37-68 65-67 66-50 76-50 77-27 73-28 74-12 95-12 95-28 44c-15 24-36 62-45 84l-17 41-8-12zm597-149-150-148-38-60c-47-73-81-154-90-218l-7-47 26-34c23-30 115-106 129-106 3 0 1 15-4 32-5 18-9 56-9 84v50l15 50 15 50 38 60 39 60 146 144 147 144-42 43c-23 24-47 43-54 43-6 0-79-66-161-147zm483 64-89-83 48-42c26-23 52-42 57-42 14 0 158 141 158 154 0 9-76 96-83 96-1 0-42-37-91-83zm-216-42-12-14 7-94 7-94-11-56-12-55-44-41-44-40-110-55-109-55-16-23-16-22v-29c0-15 7-41 15-57l15-30 33-16c48-26 122-43 224-54l93-10 100 10 100 11 65 20 64 20 26 33 25 33v74l-24 24c-13 13-69 46-124 74-109 55-163 96-190 145l-17 31 2 129 2 130-11 13c-14 17-23 16-38-2zm308-112-46-48 60-70 59-70 32-65 32-65V805l-24-49-24-49-55-58-55-59-81-54c-44-30-105-66-134-80l-52-26-28 14-27 13-70 7c-63 7-166 26-220 43l-20 5 24-26c33-36 159-118 258-169l82-42 78 39c43 21 123 68 178 104l100 66 60 62 60 61 34 63c18 34 40 85 47 114l14 51v131l-16 55c-9 30-31 84-50 120l-35 65-61 70c-34 38-64 70-67 72-4 1-27-19-53-45z"/></g><g fill="#b89d75" transform="matrix(.1 0 0 -.1 0 300)"><path d="m1351 2705-65-14-70-34c-39-19-95-53-123-76l-53-41-35-53-35-52-20-64-20-63v-136l20-64 20-64 38-60c21-32 65-90 97-127l58-69 48 48 49 48-43 45c-23 25-35 41-27 35l16-9-21 19c-11 10-19 23-17 28l2 9-9-6-10-6-10 19-10 19 6 7 6 6h-11c-6 0-19 14-27 30l-16 31 7 11 7 11-9-6-10-6-4 37c-2 20-3 66-3 102v65l26 51 25 50 41 37c76 69 168 104 301 113l85 6 107-11 107-12 138-34c116-29 282-80 356-110l19-8-3-296-3-296 50-82c27-45 52-82 55-83 8 0 28 115 39 228l9 97-1 215-2 215-6-115-6-115-2 162-2 162-57 21c-184 70-516 162-628 175-33 4-64 11-70 14-5 4-62 8-125 9l-115 1-64-14zm-356-60c-71-18-193-55-270-82l-140-48-8-220-8-220 10-145 11-145 20-80 20-80 49-100c27-55 68-128 92-161 53-74 123-154 135-154 5 0 28 28 51 63 22 34 58 85 78 114l37 52-43 50c-23 28-46 51-50 51s-24-23-45-51l-38-52-21 28c-59 73-127 249-145 370l-10 70v504l53 19c28 11 84 30 122 42l70 23 9 15c21 36 83 95 138 132l60 40-23-1c-13 0-82-15-154-34zm393-115c-99-17-210-87-244-152-9-17-14-32-11-34 2-2 42 5 88 16s132 25 190 32l107 12 118-17 119-17 82-25 82-26 7-35 7-36-7-45c-15-112-90-219-277-395l-120-113 49-48 49-48 119 109c181 168 273 288 308 404l15 48-10 91-9 91-13 27-12 26-50 27c-58 32-181 75-242 84l-43 6 5 9 5 8h-32c-18 1-78 3-133 5l-100 5-47-9zm-195-389c-24-4-46-10-50-14l-6-7 46-68 46-68 130-127c71-70 134-127 140-127 14 0 252 230 294 285l31 40-90-92c-49-51-93-93-96-93-5 0-4 23 2 40 1 3 1 17 0 33l-2 27h22l-2 13-3 12 10-2 11-2v37l-66 4-66 5-96 41c-54 23-117 46-141 52-24 5-50 11-58 13-8 3-33 1-56-2zm-340-238c-27-32-56-68-65-81l-16-23 13-47c16-64 38-122 45-122 3 0 17 21 33 46l27 46 47-64c60-83 212-248 227-248 6 0 31 20 55 44l42 43-64 67c-35 36-62 66-60 66s-18 26-44 58c-26 31-76 102-111 157-36 55-68 104-72 108l-7 8-50-58zm1159-69c-45-69-82-129-82-133s21-27 46-51l45-45 35 40c18 22 36 48 40 58 3 9 8 17 12 17 12 0 90-121 117-182 14-31 33-89 41-130l15-73-6-60c-4-33-19-96-33-140l-26-80-53-79-53-79v-26c0-38-28-147-46-182-8-17-13-33-10-36 8-9 134 117 187 187 62 82 121 195 149 285l22 70 5 108 6 107h-25l6 25 6 25h-22l5 20 5 19-10 3c-5 2-11 15-11 30l-2 26-7-5-8-4-2 18c0 10-1 24-1 30l1 13-8-5c-4-3-11 2-14 11l-6 16 7 10 6 11-13-8-13-8 7 19 7 18-7-7-7-7-14 20-14 20 6 10 6 10-13-2-13-3 1 17 2 17-12-2-11-2 1 17 2 18-8-5-8-5-21 29-20 28 7 8 7 8-12-7-12-7-13 23c-7 13-12 26-13 31 0 4-4 7-8 6-5-1-22 11-38 27l-28 27 5 9c3 4 4 8 1 8-2 0-40-57-85-126zm-807-54-79-79 19-23c11-13 30-35 44-50l24-27 86 80 87 80-49 50c-28 27-50 49-51 49s-37-36-81-80zm160-84-50-45 15-15c8-8 69-64 135-124l119-110 48 41c26 22 48 45 48 52 0 6-11 22-25 35s-25 20-25 16c0-9-105 84-105 93 0 13-17 31-25 26l-8-5-36 40c-20 22-37 40-38 40-2 0-25-20-53-44zm290-176c10-11 16-20 13-20s-13 9-23 20-16 20-13 20 13-9 23-20zm122 170-46-41 76-77c81-82 160-181 239-301l49-73 39 43c21 24 52 62 67 83l29 39v68l-12-7-11-7 5 21 6 22h-20l6 15 5 15h-18l6 17 6 16-13-8-13-8 6 15c15 40-9 21-45-34l-40-62-14 18c-7 11-11 22-9 27 3 4 0 11-6 15l-12 7 7-11c15-25-1-11-24 21l-24 32 20-14c10-8 1 3-22 25-22 21-31 32-20 24 12-8-19 24-68 70-49 47-92 86-96 88-4 1-27-16-53-38zM616 1542c-12-21-36-162-36-218 0-132 54-295 140-427l50-76 68-69c79-81 166-142 260-182l68-29 101-20 101-21h183l32 16c47 25 171 111 195 137l22 23-88-18-87-19-155 4-155 5-75 22c-41 12-106 38-143 57l-69 37-68 65-67 66-50 76-50 77-27 73-28 74-12 95-12 95-28 44c-15 24-36 62-45 84l-17 41-8-12zm597-149-150-148-38-60c-47-73-81-154-90-218l-7-47 26-34c23-30 115-106 129-106 3 0 1 15-4 32-5 18-9 56-9 84v50l15 50 15 50 38 60 39 60 145 143 146 143-41 44c-22 24-46 44-53 44-6 0-79-66-161-147zm483 64-89-83 48-42c26-23 52-42 57-42 6 0 43 32 82 70l73 70v31l-39 30-38 31 6 9 5 9h-8c-5 0-48-37-97-83zm-216-42-12-14 7-94 7-94-11-56-12-55-44-41-44-40-110-55-109-55-16-23-16-22v-29c0-15 7-41 15-57l15-30 33-16c48-26 122-43 224-54l93-10 100 10 100 11 65 20 64 20 26 33 25 33v46l-25 33-25 32-109 56-110 56-14 20c-8 11-16 17-20 14-6-6-32 37-29 49 1 4-3 7-9 7h-10l6 10 6 10h-18l3 132 3 132-18 18-19 17-12-14zm308-112-46-48 60-70 59-70 32-65 32-65V805l-24-48-24-49-50-54c-59-64-139-124-254-187l-83-46v20l-10-6-10-6v22l-10-6-10-6v19l-76 7c-41 4-110 15-152 25s-78 17-79 16c-13-12 155-128 274-189l82-42 78 39c43 21 123 68 178 104l100 66 60 62 60 61 34 63c18 34 39 85 47 113l13 50-9 73c-5 40-12 85-16 99l-6 25h-23l-1 34-1 35-34 56c-19 31-59 86-89 123-30 36-49 62-41 58l14-9-7 11c-11 19-19 15-68-35z"/></g><g fill="#8f7c5d" transform="matrix(.1 0 0 -.1 0 300)"><path d="m1351 2705-65-14-70-34c-39-19-95-53-123-76l-53-41-35-53-35-52-20-64-20-63v-136l20-64 20-64 38-60c21-32 65-90 97-127l58-69 48 48 49 48-43 45c-23 25-35 41-27 35l16-9-21 19c-11 10-19 23-17 28l2 9-9-6-10-6-10 19-10 19 6 7 6 6h-11c-6 0-19 14-27 30l-16 31 7 11 7 11-9-6-10-6-4 37c-2 20-3 66-3 102v65l26 51 25 50 41 37c76 69 168 104 301 113l85 6 107-11 107-12 138-34c116-29 282-80 356-110l19-8-3-296-3-296 50-82c27-45 52-82 55-83 8 0 28 115 39 228l9 97-1 215-2 215-6-115-6-115-2 162-2 162-57 21c-184 70-516 162-628 175-33 4-64 11-70 14-5 4-62 8-125 9l-115 1-64-14zm-356-60c-71-18-193-55-270-82l-140-48-8-220-8-220 10-145 11-145 20-80 20-80 49-100c27-55 68-128 92-161 53-74 123-154 135-154 5 0 28 28 51 63 22 34 58 85 78 114l37 52-43 50c-23 28-46 51-50 51s-24-23-45-51l-38-52-21 28c-59 73-127 249-145 370l-10 70v504l53 19c28 11 84 30 122 42l70 23 9 15c21 36 83 95 138 132l60 40-23-1c-13 0-82-15-154-34zm393-115c-99-17-210-87-244-152-9-17-14-32-11-34 2-2 42 5 88 16s132 25 190 32l107 12 118-17 119-17 82-25 82-26 7-35 7-36-7-45c-15-112-90-219-277-395l-120-113 49-48 49-48 119 109c181 168 273 288 308 404l15 48-10 91-9 91-13 27-12 26-50 27c-58 32-181 75-242 84l-43 6 5 9 5 8h-32c-18 1-78 3-133 5l-100 5-47-9zm-248-410c0-4 22-38 49-76l49-69 125-122c69-68 130-123 136-123 5 0 47 36 93 81l83 81-82-74c-46-40-86-73-90-73-7 0-12 27-18 110l-4 60-9 3-9 3 4 39 5 40-16 6c-17 7-22 34-6 34 6 0 10 6 10 13v14l-27 13c-16 7-53 21-83 31l-55 20-77-2-78-2v-7zm-287-217c-27-32-56-68-65-81l-16-23 13-47c16-64 38-122 45-122 3 0 17 21 33 46l27 46 47-64c60-83 212-248 227-248 6 0 31 20 55 44l42 43-64 67c-35 36-62 66-60 66s-18 26-44 58c-26 31-76 102-111 157-36 55-68 104-72 108l-7 8-50-58zm1159-69c-45-69-82-129-82-133s21-27 46-51l45-45 35 40c18 22 36 48 40 58 3 9 8 17 12 17 12 0 90-121 117-182 14-31 33-89 41-130l15-73-6-60c-4-33-19-96-33-140l-26-80-53-79-53-79v-26c0-38-28-147-46-182-8-17-13-33-10-36 15-15 179 167 247 275 38 59 12 33-30-30-45-69-152-188-169-188h-10l14 58c7 31 13 73 14 93v35l43 62c24 33 58 93 76 131 18 39 37 73 42 76l9 6v-19l25 2 25 1-5 15-4 15 12-18c7-10 19-27 28-37l15-19 1 32c0 18 5 66 11 107l11 75-9 72c-18 137-72 259-181 403-32 41-73 90-93 109l-35 34 5 9c3 4 4 8 1 8-2 0-40-57-85-126zm-807-54-79-79 19-23c11-13 30-35 44-50l24-27 86 80 87 80-49 50c-28 27-50 49-51 49s-37-36-81-80zm160-84-50-45 15-15c8-8 69-64 135-124l119-110 48 41c26 22 48 45 48 52 0 6-11 22-25 35s-25 20-25 16c0-9-105 84-105 93 0 13-17 31-25 26l-8-5-36 40c-20 22-37 40-38 40-2 0-25-20-53-44zm290-176c10-11 16-20 13-20s-13 9-23 20-16 20-13 20 13-9 23-20zm122 169-46-40 76-77c81-82 160-181 239-301l49-73 52 58c28 33 58 70 66 84l15 25-26 92-26 91-39-63-40-62-58 78c-59 79-195 229-209 229-4 0-28-18-53-41zM616 1542c-12-20-36-162-36-218 0-132 54-295 140-427l50-76 68-69c79-81 166-142 260-182l68-29 101-20 101-21h183l32 16c49 26 171 111 198 140l24 25-20-6c-11-4-27-9-35-12-8-4-23-5-34-4l-18 3 7-12 8-12-32 7-31 6-10-6c-6-4-72-8-146-8l-134-2v15l-30-6-30-6v20l-20-5-20-5v20l-20-5-20-5v23l-9-5c-12-8-71 14-71 26v9l-10-6-10-6v22l-10-6-10-6v10c0 6-3 10-7 10-23-4-39 5-71 39-19 20-31 30-27 22l8-15-21 18c-30 27-125 153-165 219-19 31-46 92-60 135l-25 78-7 75-7 75-33 55c-18 30-39 71-47 90l-14 34-8-12zm597-149-150-148-38-60c-47-73-81-154-90-218l-7-47 26-34c23-30 115-106 129-106 3 0 1 15-4 32-5 18-9 56-9 84v50l15 50 15 50 38 60 39 60 145 143 146 143-41 44c-22 24-46 44-53 44-6 0-79-66-161-147zm483 64-89-83 48-42c26-23 52-42 57-42 6 0 43 32 82 70l73 70v31l-39 30-38 31 6 9 5 9h-8c-5 0-48-37-97-83zm-221-47-7-11 7-93 7-93-11-56-12-55-44-41-44-40-110-55-109-55-16-23-16-22v-29c0-15 7-41 15-57l15-30 33-16c48-26 122-43 224-54l93-10 100 10 100 11 65 20 64 20 27 35 27 35-7 6-6 6v-24l-22-8-23-9-31 32c-17 17-31 38-31 46s-8 32-17 53c-9 20-13 37-9 37 5 0-26 20-68 45l-76 44-31 35-31 36-11 42-12 42 3 105 3 106-7 13c-10 15-24 16-32 2zm308-112-41-41 59-71 60-71 32-65 32-65V805l-24-48-24-49-50-54c-59-65-139-124-255-188l-84-46-28 15c-16 8-40 15-53 15s-27 3-31 7-34 8-68 9l-60 1-7 12-8 12-16-7-17-6v21l-15-5-15-6-18 13-17 13 24-27c32-36 156-118 258-170l82-42 78 39c43 21 123 68 178 104l100 66 61 62 60 61 38 73 38 72-11 25-11 25-30 11c-35 13-35 13-60 129l-19 89-31 62c-18 34-37 74-44 88-8 14-12 37-11 50s3 29 4 36l1 12 21 3 21 3-29 27-29 28-41-42zm552-289c-4-6-5-12-2-15 2-3 7 2 10 11 7 17 1 20-8 4z"/></g><g fill="#5e898e" transform="matrix(.1 0 0 -.1 0 300)"><path d="m1351 2705-65-14-70-34c-39-19-95-53-123-76l-53-41-35-53-35-52-20-64-20-63v-136l20-64 20-64 38-60c21-32 65-90 97-127l58-69 48 48 49 48-43 45c-23 25-35 41-27 35l16-9-21 19c-11 10-19 23-17 28l2 9-9-6-10-6-10 19-10 19 6 7 6 6h-11c-6 0-19 14-27 30l-16 31 7 11 7 11-9-6-10-6-4 37c-2 20-3 66-3 102v65l26 51 25 50 41 37c76 69 168 104 301 113l85 6 107-11 107-12 138-34c116-29 282-80 356-110l19-8-3-296-3-296 50-82c27-45 52-82 55-83 8 0 28 115 39 228l9 97-1 215-2 215-6-115-6-115-2 162-2 162-57 21c-184 70-516 162-628 175-33 4-64 11-70 14-5 4-62 8-125 9l-115 1-64-14zm-356-60c-71-18-193-55-270-82l-140-48-8-220-8-220 10-145 11-145 20-80 20-80 49-100c27-55 68-128 92-161 53-74 123-154 135-154 5 0 28 28 51 63 22 34 58 85 78 114l37 52-43 50c-23 28-46 51-50 51s-24-23-45-51l-38-52-21 28c-59 73-127 249-145 370l-10 70v504l53 19c28 11 84 30 122 42l70 23 9 15c21 36 83 95 138 132l60 40-23-1c-13 0-82-15-154-34zm393-115c-99-17-210-87-244-152-9-17-14-32-11-34 2-2 42 5 88 16s132 25 190 32l107 12 118-17 119-17 82-25 82-26 7-35 7-36-7-45c-15-112-90-219-277-395l-120-113 49-48 49-48 119 109c181 168 273 288 308 404l15 48-10 91-9 91-13 27-12 26-50 27c-58 32-181 75-242 84l-43 6 5 9 5 8h-32c-18 1-78 3-133 5l-100 5-47-9zm-248-408c0-35 252-316 335-374 17-12-36 46-116 128l-147 149-32 53c-31 51-40 61-40 44zm-287-219c-27-32-56-68-65-81l-16-23 13-47c16-64 38-122 45-122 3 0 17 21 33 46l27 46 47-64c60-83 212-248 227-248 6 0 31 20 55 44l42 43-64 67c-35 36-62 66-60 66s-18 26-44 58c-26 31-76 102-111 157-36 55-68 104-72 108l-7 8-50-58zm1159-69c-45-69-82-129-82-133s21-27 46-51l45-45 35 40c18 22 36 48 40 58 3 9 8 17 12 17 12 0 90-121 117-182 14-32 33-92 42-133l15-77-11-73c-6-41-20-98-31-126-11-29-18-55-16-57 8-7 45 108 57 173l11 67-6 57c-4 31-14 80-23 108-9 29-15 55-12 57 2 3 16 6 29 8 14 2 31 7 39 12l14 9-8-13-8-13 13 5c23 7 19 36-14 105-35 73-132 207-190 262l-35 34 5 9c3 4 4 8 1 8-2 0-40-57-85-126zm-807-54-79-79 19-23c11-13 30-35 44-50l24-27 86 80 87 80-49 50c-28 27-50 49-51 49s-37-36-81-80zm160-84-50-45 15-15c8-8 69-64 135-124l119-110 48 41c26 22 48 45 48 52 0 6-11 22-25 35s-25 20-25 16c0-9-105 84-105 93 0 13-17 31-25 26l-8-5-36 40c-20 22-37 40-38 40-2 0-25-20-53-44zm290-176c10-11 16-20 13-20s-13 9-23 20-16 20-13 20 13-9 23-20zm122 169-46-40 76-77c81-82 160-181 239-301l49-74 43 49c24 27 53 63 64 79l20 30-27-30c-15-16-43-47-62-68l-36-37-53 80c-30 44-54 82-54 85s7 5 15 5h15v11c0 7 8 18 18 26l17 14-14-7-14-7 7 12 8 12 14-12 14-11-6-9-5-9 17 7 17 6-19 14c-10 8-17 16-15 19 11 17-204 274-228 274-5 0-29-18-54-41zM616 1542c-12-21-36-162-36-218 0-132 54-295 140-427l50-76 68-69c79-81 166-142 260-182l68-29 101-20 101-21h188l60 36c87 52 180 124 161 124-2 0-18-11-37-25s-38-25-43-25h-8l7 11 6 11-123-7-124-7-80 11c-154 23-276 69-365 139-44 35-77 75-168 206l-42 61-31 79-31 79-12 96-12 96-28 44c-15 24-36 62-45 84l-17 41-8-12zm597-149-150-148-38-60c-47-73-81-154-90-218l-7-47 26-34c23-30 115-106 129-106 3 0 1 15-4 32-5 18-9 56-9 84v50l15 50 15 50 38 60 39 60 145 143 146 143-41 44c-22 24-46 44-53 44-6 0-79-66-161-147zm483 64-89-83 48-42c26-23 52-42 57-42 6 0 43 32 82 70l73 70v31l-39 30-38 31 6 9 5 9h-8c-5 0-48-37-97-83zm117-67c-4-4-19-11-33-14l-25-7 24 20 23 21 10-6 10-6-9-8zm324 96c-32-51-35-66-7-41 11 10 17 21 15 26-3 4-1 10 5 14l10 6v-21h34l-11 11-11 11 4 13c3 7 2 15-3 18l-9 6-27-43zm-662-174 7-99-12-56-11-55-44-41-44-40-110-55-109-55-16-23-16-22v-29c0-15 7-41 15-57l15-30 33-16c48-26 122-43 224-54l93-10 100 10 100 11 64 19 63 20 19 22 19 21-30-21-30-21-65-16c-36-8-73-15-82-15h-17l-21 22-21 23 5 17 4 18h-20l6 15 5 14-17 10-17 10 19 1h19l-23 20-23 20h14l14 1-17 13-18 13 7 6 6 7h-24l6 10 6 10h-26l13 8 13 9-10 25c-5 14-7 29-4 32 4 3 1 6-6 6h-13l5 14 5 14-10 10-10 10 11 19 10 20-9 9-9 9-5 100c-3 55-6 111-7 125s0 34 2 45l4 19-19 4-18 4 7-100zm308-14-42-41 54-64c64-74 102-137 120-196l14-42v20c1 34-53 136-114 213l-57 74 38 39c21 21 36 39 33 39-2 0-23-19-46-42zm145-420-5-73-23-48-23-49-49-53c-27-30-73-71-101-91-29-21-60-47-70-58-10-12-16-15-12-9l6 12-70-37c-38-20-67-40-65-43 2-4-2-9-10-12l-13-5-29 19-29 19h-41c-51 0-200 28-229 42l-20 10 25-25c36-36 151-111 247-160l82-42 78 39c166 81 341 215 402 306l23 35-52-57c-28-32-57-58-64-58s-22-13-34-30c-13-16-27-30-32-30h-10l4 25 5 24-19 6-19 6 6 15 6 15-29-7-29-6 35 25c19 14 42 33 50 43 55 63 72 86 91 130l21 49 6 73c2 39 2 72 0 72-3 0-8-33-10-72zm185-3v-40l4 23c2 12 2 30 0 40l-5 17 1-40zm-11-65v-25l5 13c2 6 2 18 0 25l-5 12v-25zm77-37-24-28 28 24c15 14 27 26 27 28 0 8-8 1-31-24zm-88-9 1-19 5 13c3 7 2 16-1 19-3 4-6-2-5-13zm-23-66c-10-23-16-43-14-46 3-2 22 13 43 35 22 21 27 28 13 16-32-29-44-29-30-2 6 11 10 24 8 29s-11-9-20-32z"/></g><g fill="#665a42" transform="matrix(.1 0 0 -.1 0 300)"><path d="M1315 2679c-16-5-36-7-43-4l-13 5 7-11 6-11-18 4-19 4-46-22c-25-12-68-41-97-63l-52-41-35-53-35-52-20-64-20-63v-136l20-64 20-64 38-60c21-32 65-90 97-127l58-69 46 46 47 46-44 48c-25 26-62 74-84 107l-39 59-15 54-16 55 4 64 4 64 11 7c6 4 20 25 31 48l21 40 40 37c76 69 168 104 301 113l85 6 107-11 107-12 138-34c116-29 282-80 356-110l19-8-3-297-3-296 49-80c59-95 54-89 61-82 5 6-44 92-78 137l-18 24v605l-17 5c-10 3-72 24-138 47-114 39-187 59-355 97l-75 17-180 2c-99 1-184 3-188 3-13 2-3 36 13 43l15 7h-22c-12 1-24 5-28 10l-5 10 20 6c11 3 20 11 20 16s-1 9-2 8c-2 0-16-5-33-10zm-200-16c-22-8-65-16-96-18l-56-3-189-64-189-63-8-220-8-220 10-145 11-145 20-80 20-80 49-100c27-55 68-128 92-161 54-75 123-154 135-153 5 0 44 50 86 112l77 112-9 3c-5 2-27 26-49 53l-39 49-42-57-43-56-23 28c-12 16-41 66-63 111l-42 83-21 78-22 78-4 301-4 301 129 43 128 43 9 15c21 36 83 95 138 132 65 43 65 46 3 23zm169-167c-28-13-67-38-88-56-35-32-72-87-63-96 2-2 42 5 88 16s132 25 190 32l107 12 118-17 119-17 82-25 82-26 5-32c3-17 7-45 9-62l4-30 2 42c0 23-3 53-9 67l-9 25-81 26c-45 14-120 32-167 40l-86 15h-212l14 9 13 9-13 5-14 5 15 11 15 11h-36l16 17 17 16-14 7c-7 4-22 10-33 14l-20 6-51-24zm637-321c-1-11-10-39-21-63-11-23-15-40-10-37 4 3 16 25 25 49l17 45-5 13-5 13-1-20zm-781-53c0-35 252-316 335-374 17-12-36 46-116 128l-147 149-32 53c-31 51-40 61-40 44zm690-124c-19-24-26-37-17-29 19 15 61 71 54 71-2 0-19-19-37-42zm-982-100c-24-29-51-63-60-76l-16-23 13-47c16-64 38-122 45-122 3 0 17 21 33 46l27 46 47-64c59-80 211-248 226-248 6 0 29 18 52 40l40 39-87 92-88 91-87 132c-48 72-90 135-93 139l-7 8-45-53zm1162-66c-41-64-76-121-78-127-1-6 18-30 43-55l46-45 35 40c18 22 36 48 40 58 3 9 8 17 12 17 12 0 90-121 117-182 14-32 33-92 42-133l15-77-11-73c-6-41-20-98-31-126-11-29-18-55-16-57 8-7 45 108 57 173l11 67-6 57c-4 31-13 78-22 104l-16 48 6 14 5 15h-7c-4 0-19 20-34 44l-28 43v43h-29l-21 30c-12 17-24 30-28 30s-22-25-40-55-37-55-41-55h-7v54l1 55-14 13c-8 7-11 9-9 3l6-10-12-10c-6-5-17-11-24-12-14-3-16 13-3 21 11 7 124 196 119 201-1 1-37-49-78-113zm-275 56-50-53 53 50c48 46 57 55 49 55-1 0-25-24-52-52zm141-35-69-73h-13c-8 0-22-9-31-19-9-11-20-18-25-15l-8 5 6-14 5-14-23 4-23 4-24-20c-13-12-30-21-37-21s-14-5-16-12c-2-6-11-12-20-14l-17-2-17 19-18 20 45 47 44 47-53-50-52-49 47-48 47-47 15 12c86 66 321 303 310 311-2 1-35-30-73-71zm-672-74-77-77 31-40c17-21 37-44 44-49l13-11 83 77 83 78-50 49-50 50-77-77zm156-88-45-39 15-16c8-8 69-64 135-124l119-110 47 40 46 39-71 68c-128 122-191 181-196 181-3 0-25-18-50-39zm417-2-46-40 76-77c81-82 160-181 239-301l49-74 43 49c24 27 53 63 64 79l20 30-27-30c-15-16-43-47-62-68l-36-37-53 80c-30 44-54 82-54 85s7 5 15 5h15v15c0 8 4 15 9 15h10l-4 18c-7 35-25 72-35 72h-10v51l-84 84-84 85-45-41zM615 1540c-12-19-35-163-35-216 0-132 54-295 140-427l50-76 68-69c79-81 166-142 260-182l68-29 101-20 101-21h188l60 36c87 52 180 124 161 124-2 0-18-11-37-25s-38-25-43-25h-8l7 11 6 11-123-7-124-7-80 11c-99 15-204 45-270 78-145 74-281 229-346 398l-32 80v52l-1 52-9-6-8-5 6 39 5 40-18 24c-11 13-34 52-51 87l-32 63 6 9c4 6 4 10 1 10s-8-4-11-10zm598-148-150-147-38-60c-47-73-81-154-90-218l-7-47 26-34c24-32 115-106 130-106h7l-7 12c-20 32-19 133 1 203l14 51 39 60 39 60 142 140 142 140-50 47-49 47-149-148zm477 60-83-78 48-42c26-23 52-42 58-42 5 0 44 34 86 76l76 76-17-6-18-5v35l-33 32-33 32-84-78zm130-52c0-6-12-15-26-20-32-13-30-13-30 8v18l28 2 28 2v-10zm317 86c-15-24-27-46-27-50v-7l11 6c5 4 15 19 21 33l10 27 5-12c8-22 21-14 21 12 0 40-12 37-41-9zm-662-174 7-99-12-56-11-55-44-41-44-40-110-55-109-55-16-23-16-22v-29c0-15 7-41 15-57l15-30 33-16c48-26 122-43 224-54l93-10 100 10 100 11 64 19 63 20 19 22 19 21-30-21-30-21-65-16c-36-8-73-15-82-15h-17l-21 22-21 23 5 17 4 18h-20l6 15 5 14-17 10-17 10 19 1h19l-23 20-23 20h14l14 1-17 13-18 13 7 6 6 7h-24l6 10 6 10h-26l13 8 13 9-10 25c-5 14-7 29-4 32 4 3 1 6-6 6h-13l5 14 5 14-10 10-10 10 11 19 10 20-9 9-9 9-5 100c-3 55-6 111-7 125s0 34 2 45l4 19-19 4-18 4 7-100zm308-14-42-41 54-64c64-74 102-137 120-196l14-42v20c1 34-53 136-114 213l-57 74 38 39c21 21 36 39 33 39-2 0-23-19-46-42zm145-420-5-73-23-48-23-49-49-53c-27-30-73-71-101-91-29-21-60-47-70-58-10-12-16-15-12-9l6 12-70-37c-38-20-67-40-65-43 2-4-2-9-10-12l-13-5-29 19-29 19h-41c-51 0-200 28-229 42l-20 10 25-25c36-36 151-111 247-160l82-42 78 39c166 81 341 215 402 306l23 35-52-57c-28-32-57-58-64-58s-22-13-34-30c-13-16-27-30-32-30h-10l4 25 5 24-19 6-19 6 6 15 6 15-29-7-29-6 35 25c19 14 42 33 50 43 55 63 72 86 91 130l21 49 6 73c2 39 2 72 0 72-3 0-8-33-10-72zm185-3v-40l4 23c2 12 2 30 0 40l-5 17 1-40zm-11-65v-25l5 13c2 6 2 18 0 25l-5 12v-25zm77-37-24-28 28 24c15 14 27 26 27 28 0 8-8 1-31-24zm-88-9 1-19 5 13c3 7 2 16-1 19-3 4-6-2-5-13zm-23-66c-10-23-16-43-14-46 3-2 22 13 43 35 22 21 27 28 13 16-32-29-44-29-30-2 6 11 10 24 8 29s-11-9-20-32z"/></g><g fill="#284a52" transform="matrix(.1 0 0 -.1 0 300)"><path d="M1315 2679c-16-5-36-7-43-4l-13 5 7-11 6-11-18 4-19 4-46-22c-25-12-68-41-97-63l-52-41-35-53-35-52-20-64-20-63v-136l20-64 20-64 38-60c21-32 65-90 97-127l58-69 45 45 45 45-62 73-62 74-32 65-32 65v176l11 7c6 4 21 25 32 48l21 40 40 37c76 69 168 104 301 113l85 6 107-11 107-12 138-34c116-29 282-80 356-110l19-8-3-296-3-296 50-82c27-45 52-82 56-83 9 0-70 138-83 146l-9 5v617l-17 5c-10 3-72 24-138 47-114 39-187 59-355 97l-75 17-180 2c-99 1-184 3-188 3-13 2-3 36 13 43l15 7h-22c-12 1-24 5-28 10l-5 10 20 6c11 3 20 11 20 16s-1 9-2 8c-2 0-16-5-33-10zm-200-16c-22-8-65-16-96-18l-56-3-189-64-189-63-8-220-8-220 10-145 11-145 20-80 20-80 49-100c27-55 68-128 92-161 54-75 123-154 135-153 5 0 44 50 86 112l77 112-9 3c-5 2-27 26-49 53l-39 49-42-57-43-56-23 28c-12 16-41 66-63 111l-42 83-21 78-22 78-4 301-4 301 129 43 128 43 9 15c21 36 83 95 138 132 65 43 65 46 3 23zm169-167c-28-13-67-38-88-56-35-32-72-87-63-96 2-2 42 5 88 16s132 25 190 32l107 12 118-17 119-17 82-25 82-26 5-32c3-17 7-45 9-62l4-30 2 42c0 23-3 53-9 67l-9 25-81 26c-45 14-120 32-167 40l-86 15h-212l14 9 13 9-13 5-14 5 15 11 15 11h-36l16 17 17 16-14 7c-7 4-22 10-33 14l-20 6-51-24zm637-321c-1-11-10-39-21-63-11-23-15-40-10-37 4 3 16 25 25 49l17 45-5 13-5 13-1-20zm-91-177c-19-24-26-37-17-29 19 15 61 71 54 71-2 0-19-19-37-42zm-982-100c-24-29-51-63-60-76l-16-23 13-47c16-64 38-122 45-122 3 0 17 21 33 46l27 46 47-64c59-80 211-248 226-248 6 0 29 18 52 40l40 39-87 92-88 91-87 132c-48 72-90 135-93 139l-7 8-45-53zm1162-66c-41-64-77-120-79-125-4-10 78-97 92-97h8l-8 13c-12 19-12 37-1 37h11l-6 41-5 41-13 12-12 11 5-10 6-10-12-10c-6-5-17-11-24-12-14-3-16 13-3 21 11 7 124 196 119 201-1 1-37-49-78-113zm-275 56-50-53 53 50c48 46 57 55 49 55-1 0-25-24-52-52zm141-35-69-73h-13c-8 0-22-9-31-19-9-11-20-18-25-15l-8 5 6-14 5-14-23 4-23 4-24-20c-13-12-30-21-37-21s-14-5-16-12c-2-6-11-12-20-14l-17-2-17 19-18 20 45 47 44 47-53-50-52-49 47-48 47-47 15 12c86 66 321 303 310 311-2 1-35-30-73-71zm-672-74-77-77 31-40c17-21 37-44 44-49l13-11 83 77 83 78-50 49-50 50-77-77zm896-48c0-5 4-11 8-13 14-6 63-76 98-140 39-74 46-71 8 4-52 102-114 184-114 149zm-740-40-45-39 15-16c8-8 69-64 135-124l119-110 47 40 46 39-71 68c-128 122-191 181-196 181-3 0-25-18-50-39zm416-2-45-40 76-77c42-42 100-110 131-149 30-40 57-73 59-73 3 0-21 36-51 80-31 44-53 80-49 80 5 0 0 5-9 11-10 5-18 15-18 20v10l10-6 11-7 14 12 14 12 11-7 10-6v31h25l-22 23c-12 12-44 45-71 74l-50 52-46-40zM615 1540c-12-19-35-163-35-216 0-284 214-608 488-740l72-34 86-21c47-11 91-18 97-16s-18 9-53 17c-70 14-122 32-157 56l-22 14 5 15 6 15 9-6 9-5-7 17-6 17 11-7 12-7-6 15-6 16h11c25 0 8 17-45 44l-57 30-72 70-72 71-43 65c-56 83-97 181-115 274l-14 73 5 29 5 28-19 26c-11 14-34 54-51 89l-32 62 6 9c4 6 4 10 1 10s-8-4-11-10zm598-148-150-147-38-60c-49-75-82-155-90-220l-6-50 29-35c16-19 51-50 78-69l48-35-9 20c-4 10-10 48-13 82l-4 64 10 21c6 12 20 43 31 69 33 79 75 131 222 276l140 138-50 47-49 47-149-148zm540 119c-13-11-23-22-23-25s10-4 23-2l22 3 3 21c4 26 3 26-25 3zm-97-90-47-48 47-42c51-45 52-45 74-30l15 11-15-5-16-5-26 22-27 21-5 28-5 29 37 34c20 19 32 34 27 34-6 0-32-22-59-49zm-534-571v-25l5 13c2 6 2 18 0 25l-5 12v-25zm17-77 12-23 39-20c22-11 45-20 52-20 7 1-3 8-22 16s-48 27-64 42l-29 27 12-22zm129-70c7-3 16-2 19 1 4 3-2 6-13 5l-19-1 13-5zm40-10c6-2 18-2 25 0l12 5h-50l13-5zm60-10c12-2 30-2 40 0l17 5-40-1h-40l23-4zm105-10c9-2 23-2 30 0l12 5h-60l18-5zm-100-170c15-2 39-2 55 0l27 4h-110l28-4zm-209-22c4-5 21-20 39-32l32-23-20 23c-11 13-28 27-39 33l-18 10 6-11zm80-60c8-12 128-82 133-78 2 3-28 23-67 46-39 22-69 37-66 32zm199-117c27-14 51-23 54-21 5 5-83 47-96 47-3-1 16-12 42-26z"/></g></g></svg>