<?xml version="1.0"?><svg version="1.2" baseProfile="tiny-ps" viewBox="0 0 300 300" xmlns="http://www.w3.org/2000/svg" xmlns:xlink="http://www.w3.org/1999/xlink"><title>PropertyOS</title><g><g fill="#fff" transform="matrix(.1 0 0 -.1 0 300)"><path d="M0 1500V0h3000v3000H0V1500z"/></g><g fill="#c7ccd5" transform="matrix(.1 0 0 -.1 0 300)"><path d="m1295 2281-200-158-5 96-5 96H855l-3-191-2-192-185-143c-101-79-184-147-184-151l-1-8h307l357 280 356 279 356-279 357-280h307v8c-1 4-67 59-148 122s-310 241-509 397-363 283-365 283c-2-1-93-72-203-159zm-255-550-185-147-3-512-2-512h390v558l243 5 242 5 60 16c33 9 87 30 120 46l61 29 47 47c26 26 60 67 74 92 27 46 63 159 63 199v22l-172 136-173 135-5-142-5-143-19-38-19-39-36-23c-20-13-56-29-81-34l-45-11h-355v460l-7-1c-5 0-91-67-193-148z"/></g><g fill="#818ca2" transform="matrix(.1 0 0 -.1 0 300)"><path d="m1290 2274-195-154-3 95-3 95H860v-375l-192-150-192-150 152-3 153-3 271 213c150 117 311 243 358 280s87 68 90 68 165-126 360-280l355-279 153-1c83 0 152 2 152 4 0 5-44 40-593 469-230 180-423 327-430 326-7 0-100-70-207-155zm-242-541-188-147V560l188 2 187 3 3 283 2 282h467l75 19c97 25 161 58 224 115l51 45 32 60 32 61 15 71 15 72-8 8c-27 25-329 259-335 259h-8v-261l-16-37c-8-20-27-49-42-65l-26-27-50-15-50-15h-376l-2 230-3 229-187-146z"/></g><g fill="#4f5d7c" transform="matrix(.1 0 0 -.1 0 300)"><path d="M1297 2275c-109-85-202-155-207-155h-10v190H860v-377l-184-144-184-144 149-3 149-3 348 273 347 272h30l347-272 347-272h303l-54 43c-29 24-231 183-448 352-217 170-419 328-448 352-30 24-57 43-61 43s-96-70-204-155zm-254-548-182-142-1-507V571l185-3 185-3v565h451l75 15c95 20 156 46 222 97l54 40 38 59 38 58 17 63 17 64-4 29-3 29-160 127c-88 69-162 125-164 123-2-1-5-59-6-128l-3-126-12-34-11-35-39-35-39-35-38-10-38-11h-395l-2 225-3 224-182-142z"/></g><g fill="#1e325d" transform="matrix(.1 0 0 -.1 0 300)"><path d="M1295 2270c-110-87-203-159-207-159l-8-1v200H860v-379l-180-142c-99-77-180-143-180-145s65-4 144-4h143l264 207c145 113 305 239 356 280l92 73 357-280 357-280h291l-14 15c-8 8-83 67-166 132-665 520-824 643-826 643-2-1-93-72-203-160zm-115-438c-25-21-107-86-182-146l-138-107V570h370v560h218l217 1 78 14 78 13 64 31 64 30 52 48c28 26 62 67 76 91 30 50 63 152 63 191v28l-42 34c-24 19-97 76-163 127l-120 94-5-134-6-133-22-42-22-43-42-27-41-28-224-3-223-3-2 225-3 226-45-38z"/></g></g></svg>